<svg id="svg" version="1.1" xmlns="http://www.w3.org/2000/svg" xmlns:xlink="http://www.w3.org/1999/xlink" width="400" height="400" viewBox="0, 0, 400,400"><g id="svgg"><path id="path0" d="M199.600 181.600 L 199.600 207.600 225.600 207.600 L 251.600 207.600 251.600 181.600 L 251.600 155.600 225.600 155.600 L 199.600 155.600 199.600 181.600 " stroke="none" fill="#dcdcdc" fill-rule="evenodd"></path><path id="path1" d="M141.200 181.600 L 141.200 207.600 166.800 207.600 L 192.400 207.600 192.400 181.600 L 192.400 155.600 166.800 155.600 L 141.200 155.600 141.200 181.600 " stroke="none" fill="#646464" fill-rule="evenodd"></path><path id="path2" d="M199.600 122.800 L 199.600 148.400 225.600 148.400 L 251.600 148.400 251.600 122.800 L 251.600 97.200 225.600 97.200 L 199.600 97.200 199.600 122.800 M227.600 252.600 C 227.600 252.930,227.780 253.200,228.000 253.200 C 228.220 253.200,228.400 252.930,228.400 252.600 C 228.400 252.270,228.220 252.000,228.000 252.000 C 227.780 252.000,227.600 252.270,227.600 252.600 " stroke="none" fill="#343434" fill-rule="evenodd"></path><path id="path3" d="M116.800 245.400 C 116.800 250.289,116.894 251.200,117.400 251.200 C 117.906 251.200,118.000 250.289,118.000 245.400 C 118.000 240.511,117.906 239.600,117.400 239.600 C 116.894 239.600,116.800 240.511,116.800 245.400 M177.600 254.800 C 177.600 268.044,177.677 270.000,178.200 270.000 C 178.723 270.000,178.800 268.044,178.800 254.800 C 178.800 241.556,178.723 239.600,178.200 239.600 C 177.677 239.600,177.600 241.556,177.600 254.800 M228.892 240.075 C 229.139 240.817,230.000 240.940,230.000 240.233 C 230.000 239.885,229.715 239.600,229.367 239.600 C 229.018 239.600,228.805 239.814,228.892 240.075 M222.000 241.767 C 222.000 242.115,222.285 242.400,222.633 242.400 C 223.340 242.400,223.217 241.539,222.475 241.292 C 222.214 241.205,222.000 241.418,222.000 241.767 M157.600 245.000 C 157.600 245.330,157.870 245.600,158.200 245.600 C 158.530 245.600,158.800 245.330,158.800 245.000 C 158.800 244.670,158.530 244.400,158.200 244.400 C 157.870 244.400,157.600 244.670,157.600 245.000 M193.817 245.572 C 193.544 246.014,194.175 246.492,194.544 246.122 C 194.925 245.742,194.854 245.200,194.424 245.200 C 194.217 245.200,193.944 245.368,193.817 245.572 M220.400 245.800 C 220.400 246.167,220.594 246.402,220.830 246.323 C 221.067 246.245,221.260 246.009,221.260 245.800 C 221.260 245.591,221.067 245.356,220.830 245.277 C 220.594 245.198,220.400 245.433,220.400 245.800 M272.267 245.467 C 271.806 245.927,271.975 246.400,272.600 246.400 C 272.930 246.400,273.200 246.130,273.200 245.800 C 273.200 245.175,272.727 245.006,272.267 245.467 M226.184 247.627 C 226.039 247.861,226.016 248.149,226.133 248.267 C 226.420 248.553,227.200 248.048,227.200 247.576 C 227.200 247.065,226.509 247.099,226.184 247.627 M77.200 248.200 C 77.200 248.567,77.394 248.802,77.630 248.723 C 77.867 248.645,78.060 248.409,78.060 248.200 C 78.060 247.991,77.867 247.755,77.630 247.677 C 77.394 247.598,77.200 247.833,77.200 248.200 M159.467 248.667 C 159.006 249.127,159.175 249.600,159.800 249.600 C 160.130 249.600,160.400 249.330,160.400 249.000 C 160.400 248.375,159.927 248.206,159.467 248.667 M317.200 249.200 C 317.200 249.420,317.470 249.600,317.800 249.600 C 318.130 249.600,318.400 249.420,318.400 249.200 C 318.400 248.980,318.130 248.800,317.800 248.800 C 317.470 248.800,317.200 248.980,317.200 249.200 M76.400 250.567 C 76.400 250.915,76.685 251.200,77.033 251.200 C 77.740 251.200,77.617 250.339,76.875 250.092 C 76.614 250.005,76.400 250.218,76.400 250.567 M224.092 251.675 C 224.339 252.417,225.200 252.540,225.200 251.833 C 225.200 251.485,224.915 251.200,224.567 251.200 C 224.218 251.200,224.005 251.414,224.092 251.675 M161.078 252.656 C 160.758 252.975,161.119 253.600,161.624 253.600 C 161.831 253.600,162.000 253.330,162.000 253.000 C 162.000 252.381,161.528 252.205,161.078 252.656 M197.867 252.667 C 197.406 253.127,197.575 253.600,198.200 253.600 C 198.530 253.600,198.800 253.330,198.800 253.000 C 198.800 252.375,198.327 252.206,197.867 252.667 M154.800 253.400 C 154.800 253.767,154.994 254.002,155.230 253.923 C 155.466 253.845,155.660 253.609,155.660 253.400 C 155.660 253.191,155.466 252.956,155.230 252.877 C 154.994 252.798,154.800 253.033,154.800 253.400 M223.200 254.200 C 223.200 254.530,223.470 254.800,223.800 254.800 C 224.130 254.800,224.400 254.530,224.400 254.200 C 224.400 253.870,224.130 253.600,223.800 253.600 C 223.470 253.600,223.200 253.870,223.200 254.200 M82.678 254.256 C 82.358 254.575,82.719 255.200,83.224 255.200 C 83.431 255.200,83.600 254.930,83.600 254.600 C 83.600 253.981,83.128 253.805,82.678 254.256 M155.600 255.800 C 155.600 256.130,155.870 256.400,156.200 256.400 C 156.530 256.400,156.800 256.130,156.800 255.800 C 156.800 255.470,156.530 255.200,156.200 255.200 C 155.870 255.200,155.600 255.470,155.600 255.800 M149.078 257.056 C 148.758 257.375,149.119 258.000,149.624 258.000 C 149.831 258.000,150.000 257.730,150.000 257.400 C 150.000 256.781,149.528 256.605,149.078 257.056 M116.800 263.800 C 116.800 269.044,116.892 270.000,117.400 270.000 C 117.908 270.000,118.000 269.044,118.000 263.800 C 118.000 258.556,117.908 257.600,117.400 257.600 C 116.892 257.600,116.800 258.556,116.800 263.800 M142.000 258.600 C 142.000 258.967,142.194 259.202,142.430 259.123 C 142.667 259.045,142.860 258.809,142.860 258.600 C 142.860 258.391,142.667 258.156,142.430 258.077 C 142.194 257.998,142.000 258.233,142.000 258.600 M251.467 258.267 C 251.006 258.727,251.175 259.200,251.800 259.200 C 252.130 259.200,252.400 258.930,252.400 258.600 C 252.400 257.975,251.927 257.806,251.467 258.267 M266.800 260.167 C 266.800 260.515,267.085 260.800,267.433 260.800 C 268.140 260.800,268.017 259.939,267.275 259.692 C 267.014 259.605,266.800 259.818,266.800 260.167 M252.800 260.829 C 252.800 261.064,253.057 261.514,253.371 261.829 C 254.046 262.503,254.800 262.578,254.800 261.971 C 254.800 261.736,254.543 261.286,254.229 260.971 C 253.554 260.297,252.800 260.222,252.800 260.829 M78.000 262.200 C 78.000 262.567,78.194 262.802,78.430 262.723 C 78.666 262.645,78.860 262.409,78.860 262.200 C 78.860 261.991,78.666 261.755,78.430 261.677 C 78.194 261.598,78.000 261.833,78.000 262.200 M213.200 263.400 C 213.200 263.730,213.470 264.000,213.800 264.000 C 214.130 264.000,214.400 263.730,214.400 263.400 C 214.400 263.070,214.130 262.800,213.800 262.800 C 213.470 262.800,213.200 263.070,213.200 263.400 M256.000 263.433 C 256.000 263.782,256.214 263.995,256.475 263.908 C 257.217 263.661,257.340 262.800,256.633 262.800 C 256.285 262.800,256.000 263.085,256.000 263.433 M158.800 264.600 C 158.800 264.967,158.994 265.202,159.230 265.123 C 159.466 265.045,159.660 264.809,159.660 264.600 C 159.660 264.391,159.466 264.156,159.230 264.077 C 158.994 263.998,158.800 264.233,158.800 264.600 M247.600 264.600 C 247.600 264.930,247.870 265.200,248.200 265.200 C 248.530 265.200,248.800 264.930,248.800 264.600 C 248.800 264.270,248.530 264.000,248.200 264.000 C 247.870 264.000,247.600 264.270,247.600 264.600 M80.588 265.220 C 80.207 265.835,80.728 266.232,81.242 265.718 C 81.529 265.431,81.536 265.207,81.262 265.039 C 81.039 264.900,80.735 264.982,80.588 265.220 M219.292 265.275 C 219.539 266.017,220.400 266.140,220.400 265.433 C 220.400 265.085,220.115 264.800,219.767 264.800 C 219.418 264.800,219.205 265.014,219.292 265.275 M239.478 265.456 C 239.158 265.775,239.519 266.400,240.024 266.400 C 240.231 266.400,240.400 266.130,240.400 265.800 C 240.400 265.181,239.928 265.005,239.478 265.456 M198.800 266.200 C 198.800 266.567,198.994 266.802,199.230 266.723 C 199.466 266.645,199.660 266.409,199.660 266.200 C 199.660 265.991,199.466 265.755,199.230 265.677 C 198.994 265.598,198.800 265.833,198.800 266.200 M211.600 267.367 C 211.600 267.715,211.885 268.000,212.233 268.000 C 212.940 268.000,212.817 267.139,212.075 266.892 C 211.814 266.805,211.600 267.018,211.600 267.367 M83.788 267.620 C 83.407 268.235,83.928 268.632,84.442 268.118 C 84.729 267.831,84.736 267.607,84.462 267.439 C 84.239 267.300,83.935 267.382,83.788 267.620 M99.200 267.767 C 99.200 268.115,99.485 268.400,99.833 268.400 C 100.540 268.400,100.417 267.539,99.675 267.292 C 99.414 267.205,99.200 267.418,99.200 267.767 M97.600 268.567 C 97.600 268.915,97.885 269.200,98.233 269.200 C 98.940 269.200,98.817 268.339,98.075 268.092 C 97.814 268.005,97.600 268.218,97.600 268.567 M95.456 269.078 C 95.005 269.528,95.181 270.000,95.800 270.000 C 96.130 270.000,96.400 269.831,96.400 269.624 C 96.400 269.119,95.775 268.758,95.456 269.078 " stroke="none" fill="#141414" fill-rule="evenodd"></path><path id="path4" d="M141.200 122.800 L 141.200 148.400 166.800 148.400 L 192.400 148.400 192.400 122.800 L 192.400 97.200 166.800 97.200 L 141.200 97.200 141.200 122.800 M88.400 239.200 C 88.400 239.420,87.860 239.600,87.200 239.600 C 86.540 239.600,86.000 239.780,86.000 240.000 C 86.000 240.220,85.640 240.400,85.200 240.400 C 84.760 240.400,84.400 240.580,84.400 240.800 C 84.400 241.020,84.126 241.200,83.791 241.200 C 82.999 241.200,78.800 245.399,78.800 246.191 C 78.800 246.526,78.599 246.800,78.353 246.800 C 78.099 246.800,78.000 247.155,78.122 247.624 C 78.259 248.145,78.114 248.535,77.730 248.682 C 77.301 248.847,77.190 249.250,77.352 250.058 C 77.520 250.901,77.426 251.200,76.990 251.200 C 76.516 251.200,76.400 251.870,76.400 254.600 C 76.400 256.600,76.565 258.000,76.800 258.000 C 77.020 258.000,77.200 258.521,77.200 259.158 C 77.200 259.856,77.580 260.682,78.157 261.237 C 78.683 261.744,79.027 262.385,78.921 262.661 C 78.748 263.111,80.471 265.232,80.991 265.209 C 81.106 265.204,81.196 265.294,81.191 265.409 C 81.169 265.920,83.256 267.624,83.773 267.518 C 84.089 267.453,84.314 267.503,84.274 267.629 C 84.072 268.252,85.699 269.200,86.971 269.200 C 87.757 269.200,88.400 269.380,88.400 269.600 C 88.400 270.258,95.071 270.113,95.326 269.449 C 95.460 269.100,95.913 268.971,96.568 269.096 C 97.347 269.245,97.600 269.128,97.600 268.620 C 97.600 268.128,97.816 268.015,98.400 268.200 C 98.977 268.383,99.200 268.272,99.200 267.800 C 99.200 267.332,99.423 267.217,99.986 267.396 C 100.874 267.677,105.200 263.706,105.200 262.609 C 105.200 262.274,105.380 262.000,105.600 262.000 C 105.820 262.000,106.000 261.460,106.000 260.800 L 106.000 259.600 102.569 259.600 L 99.137 259.600 97.600 261.200 C 96.754 262.080,95.779 262.800,95.431 262.800 C 95.084 262.800,94.800 262.980,94.800 263.200 C 94.800 263.429,93.600 263.600,92.000 263.600 C 90.400 263.600,89.200 263.429,89.200 263.200 C 89.200 262.980,88.925 262.800,88.589 262.800 C 87.796 262.800,84.400 259.404,84.400 258.611 C 84.400 258.275,84.220 258.000,84.000 258.000 C 83.780 258.000,83.600 257.389,83.600 256.643 C 83.600 255.720,83.376 255.199,82.900 255.014 C 82.233 254.756,82.233 254.718,82.900 254.227 C 83.344 253.900,83.600 253.179,83.600 252.256 C 83.600 251.455,83.780 250.800,84.000 250.800 C 84.220 250.800,84.400 250.525,84.400 250.189 C 84.400 249.409,87.790 246.000,88.566 246.000 C 88.889 246.000,89.264 245.820,89.400 245.600 C 89.536 245.380,90.627 245.200,91.824 245.200 C 93.021 245.200,94.000 245.380,94.000 245.600 C 94.000 245.820,94.464 246.000,95.031 246.000 C 95.712 246.000,96.586 246.545,97.600 247.600 L 99.137 249.200 102.569 249.200 L 106.000 249.200 106.000 248.000 C 106.000 247.340,105.820 246.800,105.600 246.800 C 105.380 246.800,105.200 246.526,105.200 246.191 C 105.200 245.399,101.001 241.200,100.209 241.200 C 99.874 241.200,99.600 241.020,99.600 240.800 C 99.600 240.580,99.240 240.400,98.800 240.400 C 98.360 240.400,98.000 240.220,98.000 240.000 C 98.000 239.780,97.460 239.600,96.800 239.600 C 96.140 239.600,95.600 239.420,95.600 239.200 C 95.600 238.963,94.133 238.800,92.000 238.800 C 89.867 238.800,88.400 238.963,88.400 239.200 M256.400 239.200 C 256.400 239.420,255.860 239.600,255.200 239.600 C 254.540 239.600,254.000 239.780,254.000 240.000 C 254.000 240.220,253.640 240.400,253.200 240.400 C 252.760 240.400,252.400 240.580,252.400 240.800 C 252.400 241.020,252.126 241.200,251.791 241.200 C 251.050 241.200,246.800 245.375,246.800 246.103 C 246.800 246.389,246.440 246.883,246.000 247.200 C 245.530 247.539,245.200 248.235,245.200 248.888 C 245.200 249.500,245.020 250.000,244.800 250.000 C 244.558 250.000,244.400 251.733,244.400 254.400 C 244.400 257.067,244.558 258.800,244.800 258.800 C 245.020 258.800,245.200 259.340,245.200 260.000 C 245.200 260.660,245.380 261.200,245.600 261.200 C 245.820 261.200,246.000 261.494,246.000 261.853 C 246.000 262.626,247.475 264.000,248.305 264.000 C 248.726 264.000,248.817 264.276,248.636 265.000 C 248.444 265.764,248.540 266.000,249.045 266.000 C 249.409 266.000,249.997 266.316,250.353 266.703 C 250.709 267.089,251.495 267.660,252.100 267.970 C 252.705 268.281,253.200 268.685,253.200 268.868 C 253.200 269.050,253.740 269.200,254.400 269.200 C 255.060 269.200,255.600 269.380,255.600 269.600 C 255.600 269.840,257.200 270.000,259.600 270.000 C 262.000 270.000,263.600 269.840,263.600 269.600 C 263.600 269.380,264.140 269.200,264.800 269.200 C 265.460 269.200,266.000 269.020,266.000 268.800 C 266.000 268.580,266.360 268.400,266.800 268.400 C 267.240 268.400,267.600 268.220,267.600 268.000 C 267.600 267.780,267.874 267.600,268.209 267.600 C 268.543 267.600,269.803 266.614,271.009 265.409 C 272.214 264.203,273.200 262.943,273.200 262.609 C 273.200 262.274,273.380 262.000,273.600 262.000 C 273.820 262.000,274.000 261.460,274.000 260.800 C 274.000 260.140,274.180 259.600,274.400 259.600 C 274.620 259.600,274.800 258.880,274.800 258.000 C 274.800 257.120,274.980 256.400,275.200 256.400 C 275.420 256.400,275.600 255.680,275.600 254.800 L 275.600 253.200 268.000 253.200 L 260.400 253.200 260.400 256.000 L 260.400 258.800 264.000 258.800 C 265.980 258.800,267.600 258.965,267.600 259.167 C 267.600 259.369,267.709 259.819,267.843 260.167 C 268.000 260.578,267.866 260.800,267.461 260.800 C 267.117 260.800,266.386 261.250,265.836 261.800 C 265.286 262.350,264.573 262.800,264.252 262.800 C 263.930 262.800,263.607 262.962,263.533 263.160 C 263.184 264.105,256.047 263.844,255.805 262.877 C 255.629 262.177,255.383 262.015,254.785 262.205 C 253.745 262.535,252.665 261.455,252.995 260.415 C 253.188 259.807,253.019 259.570,252.254 259.378 C 251.379 259.158,251.288 258.968,251.483 257.764 C 251.626 256.886,251.544 256.400,251.252 256.400 C 250.991 256.400,250.800 255.723,250.800 254.800 C 250.800 253.920,250.980 253.200,251.200 253.200 C 251.420 253.200,251.600 252.660,251.600 252.000 C 251.600 251.340,251.780 250.800,252.000 250.800 C 252.220 250.800,252.400 250.525,252.400 250.189 C 252.400 249.854,253.205 248.774,254.189 247.789 C 255.174 246.805,256.254 246.000,256.589 246.000 C 256.925 246.000,257.200 245.820,257.200 245.600 C 257.200 245.378,258.267 245.200,259.600 245.200 C 260.933 245.200,262.000 245.378,262.000 245.600 C 262.000 245.820,262.464 246.000,263.031 246.000 C 263.712 246.000,264.586 246.545,265.600 247.600 L 267.137 249.200 270.569 249.200 L 274.000 249.200 274.000 248.008 C 274.000 247.066,273.788 246.762,272.988 246.561 C 272.228 246.370,272.034 246.122,272.211 245.564 C 272.468 244.756,270.063 242.000,269.102 242.000 C 268.813 242.000,268.317 241.640,268.000 241.200 C 267.683 240.760,267.103 240.400,266.712 240.400 C 266.320 240.400,266.000 240.220,266.000 240.000 C 266.000 239.780,265.280 239.600,264.400 239.600 C 263.520 239.600,262.800 239.420,262.800 239.200 C 262.800 238.967,261.467 238.800,259.600 238.800 C 257.733 238.800,256.400 238.967,256.400 239.200 M110.800 254.800 L 110.800 270.000 113.800 270.000 L 116.800 270.000 116.800 263.847 C 116.800 256.593,116.211 257.214,123.100 257.205 L 127.600 257.200 127.600 263.600 L 127.600 270.000 131.200 270.000 L 134.800 270.000 134.800 254.800 L 134.800 239.600 131.200 239.600 L 127.600 239.600 127.600 245.600 L 127.600 251.600 123.100 251.595 C 116.237 251.586,116.800 252.144,116.800 245.353 L 116.800 239.600 113.800 239.600 L 110.800 239.600 110.800 254.800 M149.700 240.683 C 149.425 241.275,149.200 241.994,149.200 242.280 C 149.200 242.566,149.020 242.800,148.800 242.800 C 148.580 242.800,148.400 243.160,148.400 243.600 C 148.400 244.040,148.220 244.400,148.000 244.400 C 147.780 244.400,147.600 244.940,147.600 245.600 C 147.600 246.260,147.420 246.800,147.200 246.800 C 146.980 246.800,146.800 247.160,146.800 247.600 C 146.800 248.040,146.620 248.400,146.400 248.400 C 146.180 248.400,146.000 248.940,146.000 249.600 C 146.000 250.260,145.820 250.800,145.600 250.800 C 145.380 250.800,145.200 251.160,145.200 251.600 C 145.200 252.040,145.020 252.400,144.800 252.400 C 144.580 252.400,144.400 252.940,144.400 253.600 C 144.400 254.260,144.220 254.800,144.000 254.800 C 143.780 254.800,143.600 255.160,143.600 255.600 C 143.600 256.040,143.400 256.400,143.155 256.400 C 142.884 256.400,142.781 256.886,142.891 257.637 C 143.009 258.440,142.884 258.946,142.536 259.080 C 142.241 259.193,142.000 259.536,142.000 259.843 C 142.000 260.149,141.820 260.400,141.600 260.400 C 141.380 260.400,141.200 260.940,141.200 261.600 C 141.200 262.260,141.020 262.800,140.800 262.800 C 140.580 262.800,140.400 263.160,140.400 263.600 C 140.400 264.040,140.220 264.400,140.000 264.400 C 139.780 264.400,139.600 264.839,139.600 265.376 C 139.600 265.913,139.420 266.464,139.200 266.600 C 138.980 266.736,138.800 267.197,138.800 267.624 C 138.800 268.051,138.620 268.400,138.400 268.400 C 138.180 268.400,138.000 268.760,138.000 269.200 C 138.000 269.941,138.267 270.000,141.600 270.000 C 144.933 270.000,145.200 269.941,145.200 269.200 C 145.200 268.760,145.380 268.400,145.600 268.400 C 145.820 268.400,146.000 268.040,146.000 267.600 C 146.000 267.160,146.180 266.800,146.400 266.800 C 146.620 266.800,146.800 266.337,146.800 265.771 C 146.800 263.827,147.480 263.599,153.271 263.606 C 159.220 263.613,159.853 263.809,159.667 265.584 C 159.596 266.264,159.729 266.800,159.970 266.800 C 160.206 266.800,160.400 267.263,160.400 267.829 C 160.400 269.615,161.212 270.000,164.971 270.000 C 168.133 270.000,168.400 269.938,168.400 269.200 C 168.400 268.760,168.220 268.400,168.000 268.400 C 167.780 268.400,167.600 268.040,167.600 267.600 C 167.600 267.160,167.420 266.800,167.200 266.800 C 166.980 266.800,166.800 266.260,166.800 265.600 C 166.800 264.940,166.620 264.400,166.400 264.400 C 166.180 264.400,166.000 264.040,166.000 263.600 C 166.000 263.160,165.820 262.800,165.600 262.800 C 165.380 262.800,165.200 262.451,165.200 262.024 C 165.200 261.597,165.020 261.136,164.800 261.000 C 164.580 260.864,164.400 260.313,164.400 259.776 C 164.400 259.239,164.220 258.800,164.000 258.800 C 163.780 258.800,163.600 258.440,163.600 258.000 C 163.600 257.560,163.420 257.200,163.200 257.200 C 162.980 257.200,162.800 256.660,162.800 256.000 C 162.800 255.340,162.620 254.800,162.400 254.800 C 162.180 254.800,162.000 254.549,162.000 254.243 C 162.000 253.936,161.759 253.593,161.464 253.480 C 161.116 253.346,160.991 252.840,161.109 252.037 C 161.219 251.286,161.116 250.800,160.845 250.800 C 160.600 250.800,160.400 250.530,160.400 250.200 C 160.400 249.870,160.141 249.600,159.825 249.600 C 159.392 249.600,159.306 249.256,159.477 248.200 C 159.625 247.291,159.546 246.800,159.252 246.800 C 159.004 246.800,158.800 246.530,158.800 246.200 C 158.800 245.870,158.522 245.600,158.182 245.600 C 157.692 245.600,157.618 245.309,157.826 244.200 C 157.999 243.282,157.936 242.800,157.645 242.800 C 157.400 242.800,157.200 242.530,157.200 242.200 C 157.200 241.870,156.910 241.600,156.557 241.600 C 156.070 241.600,155.974 241.356,156.164 240.600 L 156.415 239.600 153.308 239.603 C 150.326 239.606,150.180 239.650,149.700 240.683 M171.600 254.800 L 171.600 270.000 174.600 270.000 L 177.600 270.000 177.600 254.800 L 177.600 239.600 174.600 239.600 L 171.600 239.600 171.600 254.800 M184.400 254.800 L 184.400 270.000 187.600 270.000 L 190.800 270.000 190.800 260.800 C 190.800 254.933,190.945 251.600,191.200 251.600 C 191.420 251.600,191.600 251.960,191.600 252.400 C 191.600 252.840,191.780 253.200,192.000 253.200 C 192.220 253.200,192.400 253.560,192.400 254.000 C 192.400 254.440,192.580 254.800,192.800 254.800 C 193.020 254.800,193.200 255.078,193.200 255.417 C 193.200 255.756,193.560 256.420,194.000 256.892 C 194.440 257.364,194.800 257.987,194.800 258.275 C 194.800 258.564,194.980 258.800,195.200 258.800 C 195.420 258.800,195.600 259.160,195.600 259.600 C 195.600 260.040,195.780 260.400,196.000 260.400 C 196.220 260.400,196.400 260.760,196.400 261.200 C 196.400 261.640,196.580 262.000,196.800 262.000 C 197.020 262.000,197.200 262.360,197.200 262.800 C 197.200 263.240,197.380 263.600,197.600 263.600 C 197.820 263.600,198.000 263.931,198.000 264.336 C 198.000 264.740,198.436 265.270,198.969 265.513 C 199.676 265.835,199.879 266.176,199.722 266.777 C 199.600 267.245,199.699 267.600,199.953 267.600 C 200.199 267.600,200.400 267.883,200.400 268.229 C 200.400 269.551,201.457 270.000,204.571 270.000 L 207.600 270.000 207.600 254.800 L 207.600 239.600 204.400 239.600 L 201.200 239.600 201.200 248.400 C 201.200 254.000,201.055 257.200,200.800 257.200 C 200.580 257.200,200.400 256.840,200.400 256.400 C 200.400 255.960,200.250 255.600,200.068 255.600 C 199.885 255.600,199.494 255.150,199.200 254.600 C 198.906 254.050,198.422 253.600,198.125 253.600 C 197.748 253.600,197.661 253.297,197.836 252.600 C 197.990 251.984,197.917 251.600,197.643 251.600 C 197.400 251.600,197.200 251.240,197.200 250.800 C 197.200 250.360,197.020 250.000,196.800 250.000 C 196.580 250.000,196.400 249.640,196.400 249.200 C 196.400 248.760,196.220 248.400,196.000 248.400 C 195.780 248.400,195.600 248.117,195.600 247.771 C 195.600 247.128,194.441 245.734,194.029 245.882 C 193.903 245.927,193.856 245.612,193.925 245.182 C 193.994 244.752,193.859 244.400,193.625 244.400 C 193.391 244.400,193.200 244.040,193.200 243.600 C 193.200 243.160,193.020 242.800,192.800 242.800 C 192.580 242.800,192.400 242.440,192.400 242.000 C 192.400 241.560,192.220 241.200,192.000 241.200 C 191.780 241.200,191.600 240.840,191.600 240.400 C 191.600 239.659,191.333 239.600,188.000 239.600 L 184.400 239.600 184.400 254.800 M222.923 241.000 C 223.094 242.056,223.008 242.400,222.575 242.400 C 222.259 242.400,222.000 242.670,222.000 243.000 C 222.000 243.330,221.800 243.600,221.555 243.600 C 221.284 243.600,221.181 244.086,221.291 244.837 C 221.409 245.640,221.284 246.146,220.936 246.280 C 220.641 246.393,220.400 246.736,220.400 247.043 C 220.400 247.349,220.220 247.600,220.000 247.600 C 219.780 247.600,219.600 248.140,219.600 248.800 C 219.600 249.460,219.420 250.000,219.200 250.000 C 218.980 250.000,218.800 250.360,218.800 250.800 C 218.800 251.240,218.620 251.600,218.400 251.600 C 218.180 251.600,218.000 252.039,218.000 252.576 C 218.000 253.113,217.819 253.664,217.599 253.801 C 217.378 253.937,217.307 254.488,217.442 255.025 C 217.625 255.756,217.526 256.000,217.043 256.000 C 216.690 256.000,216.400 256.270,216.400 256.600 C 216.400 256.930,216.200 257.200,215.955 257.200 C 215.664 257.200,215.601 257.682,215.774 258.600 C 215.982 259.709,215.908 260.000,215.418 260.000 C 215.078 260.000,214.800 260.270,214.800 260.600 C 214.800 260.930,214.600 261.200,214.355 261.200 C 214.064 261.200,214.001 261.682,214.174 262.600 C 214.382 263.709,214.308 264.000,213.818 264.000 C 213.478 264.000,213.200 264.270,213.200 264.600 C 213.200 264.930,212.996 265.200,212.748 265.200 C 212.454 265.200,212.375 265.691,212.523 266.600 C 212.694 267.656,212.608 268.000,212.175 268.000 C 211.828 268.000,211.600 268.397,211.600 269.000 C 211.600 269.993,211.627 270.000,215.200 270.000 L 218.800 270.000 218.800 268.800 C 218.800 268.140,219.004 267.600,219.252 267.600 C 219.546 267.600,219.625 267.109,219.477 266.200 C 219.306 265.144,219.392 264.800,219.825 264.800 C 220.141 264.800,220.400 264.530,220.400 264.200 C 220.400 263.693,221.333 263.600,226.400 263.600 L 232.400 263.600 232.400 264.800 C 232.400 265.460,232.580 266.000,232.800 266.000 C 233.020 266.000,233.200 266.540,233.200 267.200 C 233.200 267.860,233.380 268.400,233.600 268.400 C 233.820 268.400,234.000 268.760,234.000 269.200 C 234.000 269.941,234.267 270.000,237.600 270.000 L 241.200 270.000 241.200 268.800 C 241.200 268.140,241.020 267.600,240.800 267.600 C 240.580 267.600,240.400 267.349,240.400 267.043 C 240.400 266.736,240.159 266.393,239.864 266.280 C 239.516 266.146,239.391 265.640,239.509 264.837 C 239.619 264.086,239.516 263.600,239.245 263.600 C 239.000 263.600,238.800 263.240,238.800 262.800 C 238.800 262.360,238.620 262.000,238.400 262.000 C 238.180 262.000,238.000 261.460,238.000 260.800 C 238.000 260.140,237.820 259.600,237.600 259.600 C 237.380 259.600,237.200 259.240,237.200 258.800 C 237.200 258.360,237.020 258.000,236.800 258.000 C 236.580 258.000,236.400 257.460,236.400 256.800 C 236.400 256.140,236.220 255.600,236.000 255.600 C 235.780 255.600,235.600 255.240,235.600 254.800 C 235.600 254.360,235.420 254.000,235.200 254.000 C 234.980 254.000,234.800 253.460,234.800 252.800 C 234.800 252.140,234.620 251.600,234.400 251.600 C 234.180 251.600,234.000 251.240,234.000 250.800 C 234.000 250.360,233.820 250.000,233.600 250.000 C 233.380 250.000,233.200 249.651,233.200 249.224 C 233.200 248.797,233.020 248.336,232.800 248.200 C 232.580 248.064,232.400 247.513,232.400 246.976 C 232.400 246.439,232.220 246.000,232.000 246.000 C 231.780 246.000,231.600 245.640,231.600 245.200 C 231.600 244.760,231.420 244.400,231.200 244.400 C 230.980 244.400,230.800 243.860,230.800 243.200 C 230.800 242.540,230.620 242.000,230.400 242.000 C 230.180 242.000,230.000 241.820,230.000 241.600 C 230.000 240.333,228.369 239.600,225.548 239.600 L 222.695 239.600 222.923 241.000 M280.400 254.800 L 280.400 270.000 289.200 270.000 L 298.000 270.000 298.000 266.800 L 298.000 263.600 292.400 263.600 L 286.800 263.600 286.800 260.400 L 286.800 257.200 292.000 257.200 L 297.200 257.200 297.200 254.400 L 297.200 251.600 292.000 251.600 L 286.800 251.600 286.800 248.400 L 286.800 245.200 292.400 245.200 L 298.000 245.200 298.000 242.400 L 298.000 239.600 289.200 239.600 L 280.400 239.600 280.400 254.800 M303.600 254.800 L 303.600 270.000 306.800 270.000 L 310.000 270.000 310.000 264.800 C 310.000 261.940,310.103 259.600,310.229 259.600 C 310.666 259.600,311.600 260.746,311.600 261.283 C 311.600 261.580,311.960 262.083,312.400 262.400 C 312.840 262.717,313.200 263.257,313.200 263.600 C 313.200 263.943,313.560 264.483,314.000 264.800 C 314.440 265.117,314.800 265.657,314.800 266.000 C 314.800 266.343,315.160 266.883,315.600 267.200 C 316.040 267.517,316.400 268.020,316.400 268.317 C 316.400 269.629,317.495 270.000,321.371 270.000 C 324.933 270.000,325.200 269.944,325.200 269.200 C 325.200 268.760,325.020 268.400,324.800 268.400 C 324.580 268.400,324.400 268.112,324.400 267.760 C 324.400 267.409,323.860 266.617,323.200 266.000 C 322.540 265.383,322.000 264.667,322.000 264.408 C 322.000 264.149,321.280 263.246,320.400 262.400 C 319.520 261.554,318.800 260.579,318.800 260.231 C 318.800 259.884,318.620 259.600,318.400 259.600 C 318.180 259.600,318.000 259.240,318.000 258.800 C 318.000 258.300,318.267 258.000,318.712 258.000 C 319.103 258.000,319.683 257.640,320.000 257.200 C 320.317 256.760,320.897 256.400,321.288 256.400 C 321.733 256.400,322.000 256.100,322.000 255.600 C 322.000 255.160,322.135 254.799,322.300 254.797 C 322.747 254.792,323.600 252.774,323.600 251.720 C 323.600 251.214,323.780 250.800,324.000 250.800 C 324.220 250.800,324.400 250.080,324.400 249.200 C 324.400 248.320,324.220 247.600,324.000 247.600 C 323.780 247.600,323.600 246.880,323.600 246.000 C 323.600 245.120,323.450 244.400,323.268 244.400 C 323.085 244.400,322.680 243.905,322.368 243.300 C 321.623 241.857,320.981 241.200,320.317 241.200 C 320.020 241.200,319.517 240.840,319.200 240.400 C 318.659 239.649,318.165 239.600,311.112 239.600 L 303.600 239.600 303.600 254.800 M314.000 244.800 C 314.000 245.020,314.278 245.200,314.618 245.200 C 315.510 245.200,317.200 247.021,317.200 247.982 C 317.200 248.442,317.462 248.800,317.800 248.800 C 318.130 248.800,318.400 248.980,318.400 249.200 C 318.400 249.420,318.130 249.600,317.800 249.600 C 317.462 249.600,317.200 249.958,317.200 250.418 C 317.200 252.153,315.476 253.200,312.618 253.200 L 310.000 253.200 310.000 248.800 L 310.000 244.400 312.000 244.400 C 313.100 244.400,314.000 244.580,314.000 244.800 M226.940 248.400 C 226.748 249.358,226.838 249.600,227.382 249.600 C 227.933 249.600,228.012 249.833,227.797 250.811 C 227.600 251.711,227.669 251.994,228.066 251.911 C 228.452 251.831,228.567 252.216,228.483 253.300 C 228.416 254.150,228.546 254.800,228.783 254.800 C 229.012 254.800,229.200 255.340,229.200 256.000 C 229.200 256.660,229.380 257.200,229.600 257.200 C 229.820 257.200,230.000 257.380,230.000 257.600 C 230.000 257.837,228.533 258.000,226.400 258.000 C 223.067 258.000,222.800 257.941,222.800 257.200 C 222.800 256.760,223.000 256.400,223.245 256.400 C 223.536 256.400,223.599 255.918,223.426 255.000 C 223.211 253.854,223.285 253.600,223.832 253.600 C 224.361 253.600,224.450 253.350,224.260 252.400 C 224.080 251.501,224.168 251.200,224.610 251.200 C 224.973 251.200,225.200 250.815,225.200 250.200 C 225.200 249.650,225.380 249.200,225.600 249.200 C 225.820 249.200,226.000 248.870,226.000 248.467 C 226.000 247.685,226.328 247.200,226.857 247.200 C 227.035 247.200,227.072 247.740,226.940 248.400 M153.429 248.971 C 153.743 249.286,154.000 249.815,154.000 250.148 C 154.000 250.481,154.180 250.864,154.400 251.000 C 154.620 251.136,154.800 251.577,154.800 251.981 C 154.800 252.384,155.048 252.809,155.351 252.926 C 155.700 253.060,155.829 253.513,155.704 254.168 C 155.553 254.956,155.671 255.200,156.200 255.200 C 156.724 255.200,156.834 255.420,156.652 256.100 C 156.519 256.595,156.408 257.225,156.405 257.500 C 156.402 257.862,155.415 258.000,152.824 258.000 C 149.500 258.000,147.908 257.517,149.375 256.954 C 149.719 256.822,150.000 256.384,150.000 255.981 C 150.000 255.577,150.180 255.136,150.400 255.000 C 150.620 254.864,150.800 254.403,150.800 253.976 C 150.800 253.549,150.980 253.200,151.200 253.200 C 151.420 253.200,151.600 252.660,151.600 252.000 C 151.600 251.340,151.780 250.800,152.000 250.800 C 152.220 250.800,152.400 250.260,152.400 249.600 C 152.400 248.258,152.596 248.138,153.429 248.971 " stroke="none" fill="#040404" fill-rule="evenodd"></path></g></svg>